<?xml version="1.0" standalone="no"?>
<!DOCTYPE svg PUBLIC "-//W3C//DTD SVG 20010904//EN"
 "http://www.w3.org/TR/2001/REC-SVG-20010904/DTD/svg10.dtd">
<svg version="1.0" xmlns="http://www.w3.org/2000/svg"
 width="512.000000pt" height="512.000000pt" viewBox="0 0 512.000000 512.000000"
 preserveAspectRatio="xMidYMid meet">
<metadata>
Created by potrace 1.11, written by Peter Selinger 2001-2013
</metadata>
<g transform="translate(0.000000,512.000000) scale(0.100000,-0.100000)"
fill="#000000" stroke="none">
<path d="M1153 5106 c-179 -45 -325 -196 -362 -375 -12 -56 -17 -3733 -6
-3796 34 -188 184 -349 369 -394 27 -7 91 -12 143 -12 l93 0 0 -233 c0 -220 1
-235 20 -259 12 -15 36 -29 55 -33 29 -5 59 7 222 89 103 52 198 97 211 101
18 6 68 -15 219 -89 107 -54 209 -99 226 -100 50 -4 83 25 93 84 5 27 -16 61
-50 83 -35 23 -36 24 -36 95 0 69 1 73 25 79 24 6 67 54 64 71 -1 4 -1 31 0
59 l1 52 916 0 c887 0 918 1 942 19 34 25 45 67 28 108 -15 35 -46 51 -118 59
-98 10 -191 75 -240 168 -33 64 -33 193 1 263 47 95 139 159 243 170 66 8 96
22 112 55 10 20 12 420 11 1850 0 1004 -4 1835 -9 1848 -18 54 20 52 -1091 52
-1125 0 -1069 3 -1095 -60 -12 -29 -15 -30 -73 -30 -33 0 -58 3 -54 6 11 12
-24 65 -49 74 -37 15 -244 12 -274 -3 -14 -7 -31 -27 -39 -45 l-15 -33 -140 3
c-136 3 -141 4 -144 24 -8 55 -94 77 -199 50z"/>
</g>
</svg>
